<mxfile host="app.diagrams.net" modified="2023-12-27T05:02:10.446Z" agent="Mozilla/5.0 (Windows NT 10.0; Win64; x64) AppleWebKit/537.36 (KHTML, like Gecko) Chrome/120.0.0.0 Safari/537.36" etag="Fte7zOuhIzYPd8qlWzCL" version="22.1.12" type="google">
  <diagram name="第 1 页" id="hf_xCSnUC5tjn7hEkI6W">
    <mxGraphModel grid="1" page="1" gridSize="10" guides="1" tooltips="1" connect="1" arrows="1" fold="1" pageScale="1" pageWidth="827" pageHeight="1169" math="0" shadow="0">
      <root>
        <mxCell id="0" />
        <mxCell id="1" parent="0" />
        <mxCell id="HJFbT3N5DJUNsUuXBN4t-11" value="" style="shape=internalStorage;whiteSpace=wrap;html=1;backgroundOutline=1;dx=320;dy=70;fontStyle=1" vertex="1" parent="1">
          <mxGeometry x="78" y="70" width="640" height="850" as="geometry" />
        </mxCell>
        <mxCell id="HJFbT3N5DJUNsUuXBN4t-31" style="edgeStyle=orthogonalEdgeStyle;rounded=0;orthogonalLoop=1;jettySize=auto;html=1;exitX=0.5;exitY=1;exitDx=0;exitDy=0;entryX=0.5;entryY=0;entryDx=0;entryDy=0;strokeWidth=4;" edge="1" parent="1" source="HJFbT3N5DJUNsUuXBN4t-12" target="HJFbT3N5DJUNsUuXBN4t-13">
          <mxGeometry relative="1" as="geometry" />
        </mxCell>
        <mxCell id="HJFbT3N5DJUNsUuXBN4t-12" value="" style="ellipse;whiteSpace=wrap;html=1;aspect=fixed;fillColor=#000000;" vertex="1" parent="1">
          <mxGeometry x="200" y="180" width="60" height="60" as="geometry" />
        </mxCell>
        <mxCell id="HJFbT3N5DJUNsUuXBN4t-32" style="edgeStyle=orthogonalEdgeStyle;rounded=0;orthogonalLoop=1;jettySize=auto;html=1;exitX=0.5;exitY=1;exitDx=0;exitDy=0;entryX=0.5;entryY=0;entryDx=0;entryDy=0;strokeWidth=4;" edge="1" parent="1" source="HJFbT3N5DJUNsUuXBN4t-13" target="HJFbT3N5DJUNsUuXBN4t-14">
          <mxGeometry relative="1" as="geometry" />
        </mxCell>
        <mxCell id="HJFbT3N5DJUNsUuXBN4t-39" style="edgeStyle=orthogonalEdgeStyle;rounded=0;orthogonalLoop=1;jettySize=auto;html=1;exitX=1;exitY=0.5;exitDx=0;exitDy=0;entryX=0;entryY=0.5;entryDx=0;entryDy=0;strokeWidth=4;" edge="1" parent="1" source="HJFbT3N5DJUNsUuXBN4t-13" target="HJFbT3N5DJUNsUuXBN4t-37">
          <mxGeometry relative="1" as="geometry" />
        </mxCell>
        <mxCell id="HJFbT3N5DJUNsUuXBN4t-13" value="" style="rhombus;whiteSpace=wrap;html=1;" vertex="1" parent="1">
          <mxGeometry x="190" y="290" width="80" height="80" as="geometry" />
        </mxCell>
        <mxCell id="HJFbT3N5DJUNsUuXBN4t-33" style="edgeStyle=orthogonalEdgeStyle;rounded=0;orthogonalLoop=1;jettySize=auto;html=1;exitX=0.5;exitY=1;exitDx=0;exitDy=0;entryX=0.5;entryY=0;entryDx=0;entryDy=0;strokeWidth=4;" edge="1" parent="1" source="HJFbT3N5DJUNsUuXBN4t-14" target="HJFbT3N5DJUNsUuXBN4t-15">
          <mxGeometry relative="1" as="geometry" />
        </mxCell>
        <mxCell id="HJFbT3N5DJUNsUuXBN4t-14" value="&lt;font style=&quot;font-size: 25px;&quot;&gt;入場&lt;/font&gt;" style="rounded=1;whiteSpace=wrap;html=1;" vertex="1" parent="1">
          <mxGeometry x="170" y="430" width="120" height="60" as="geometry" />
        </mxCell>
        <mxCell id="HJFbT3N5DJUNsUuXBN4t-34" style="edgeStyle=orthogonalEdgeStyle;rounded=0;orthogonalLoop=1;jettySize=auto;html=1;exitX=0.5;exitY=1;exitDx=0;exitDy=0;entryX=0.5;entryY=0;entryDx=0;entryDy=0;strokeWidth=4;" edge="1" parent="1" source="HJFbT3N5DJUNsUuXBN4t-15" target="HJFbT3N5DJUNsUuXBN4t-17">
          <mxGeometry relative="1" as="geometry" />
        </mxCell>
        <mxCell id="HJFbT3N5DJUNsUuXBN4t-42" style="edgeStyle=orthogonalEdgeStyle;rounded=0;orthogonalLoop=1;jettySize=auto;html=1;exitX=1;exitY=0.5;exitDx=0;exitDy=0;entryX=0;entryY=0.5;entryDx=0;entryDy=0;strokeWidth=4;" edge="1" parent="1" source="HJFbT3N5DJUNsUuXBN4t-15" target="HJFbT3N5DJUNsUuXBN4t-45">
          <mxGeometry relative="1" as="geometry">
            <mxPoint x="500" y="562.5" as="targetPoint" />
          </mxGeometry>
        </mxCell>
        <mxCell id="HJFbT3N5DJUNsUuXBN4t-15" value="" style="rhombus;whiteSpace=wrap;html=1;" vertex="1" parent="1">
          <mxGeometry x="190" y="544.5" width="80" height="80" as="geometry" />
        </mxCell>
        <mxCell id="HJFbT3N5DJUNsUuXBN4t-17" value="&lt;font style=&quot;font-size: 25px;&quot;&gt;離場&lt;/font&gt;" style="rounded=1;whiteSpace=wrap;html=1;" vertex="1" parent="1">
          <mxGeometry x="170" y="670" width="120" height="60" as="geometry" />
        </mxCell>
        <mxCell id="HJFbT3N5DJUNsUuXBN4t-26" value="" style="group" connectable="0" vertex="1" parent="1">
          <mxGeometry x="190" y="780" width="80" height="80" as="geometry" />
        </mxCell>
        <mxCell id="HJFbT3N5DJUNsUuXBN4t-21" value="" style="verticalLabelPosition=bottom;verticalAlign=top;html=1;shape=mxgraph.flowchart.on-page_reference;strokeWidth=7;container=0;" vertex="1" parent="HJFbT3N5DJUNsUuXBN4t-26">
          <mxGeometry width="80" height="80" as="geometry" />
        </mxCell>
        <mxCell id="HJFbT3N5DJUNsUuXBN4t-22" value="" style="verticalLabelPosition=bottom;verticalAlign=top;html=1;shape=mxgraph.flowchart.on-page_reference;fillColor=#000000;container=0;strokeWidth=10;" vertex="1" parent="HJFbT3N5DJUNsUuXBN4t-26">
          <mxGeometry x="25" y="25" width="30" height="30" as="geometry" />
        </mxCell>
        <mxCell id="HJFbT3N5DJUNsUuXBN4t-36" style="edgeStyle=orthogonalEdgeStyle;rounded=0;orthogonalLoop=1;jettySize=auto;html=1;exitX=0.5;exitY=1;exitDx=0;exitDy=0;entryX=0.5;entryY=0;entryDx=0;entryDy=0;entryPerimeter=0;strokeWidth=4;" edge="1" parent="1" source="HJFbT3N5DJUNsUuXBN4t-17" target="HJFbT3N5DJUNsUuXBN4t-21">
          <mxGeometry relative="1" as="geometry" />
        </mxCell>
        <mxCell id="HJFbT3N5DJUNsUuXBN4t-37" value="&lt;font style=&quot;font-size: 25px;&quot;&gt;錄入車輛&lt;br&gt;進場信息&lt;/font&gt;" style="rounded=1;whiteSpace=wrap;html=1;" vertex="1" parent="1">
          <mxGeometry x="500" y="270" width="170" height="120" as="geometry" />
        </mxCell>
        <mxCell id="HJFbT3N5DJUNsUuXBN4t-41" value="" style="endArrow=classic;html=1;rounded=0;entryX=1;entryY=0.5;entryDx=0;entryDy=0;exitX=0.5;exitY=1;exitDx=0;exitDy=0;strokeWidth=4;" edge="1" parent="1" source="HJFbT3N5DJUNsUuXBN4t-37">
          <mxGeometry width="50" height="50" relative="1" as="geometry">
            <mxPoint x="585" y="390" as="sourcePoint" />
            <mxPoint x="290" y="460" as="targetPoint" />
          </mxGeometry>
        </mxCell>
        <mxCell id="HJFbT3N5DJUNsUuXBN4t-43" value="" style="endArrow=classic;html=1;rounded=0;entryX=1;entryY=0.5;entryDx=0;entryDy=0;exitX=0.5;exitY=1;exitDx=0;exitDy=0;strokeWidth=4;" edge="1" parent="1" source="HJFbT3N5DJUNsUuXBN4t-45" target="HJFbT3N5DJUNsUuXBN4t-17">
          <mxGeometry width="50" height="50" relative="1" as="geometry">
            <mxPoint x="575" y="615" as="sourcePoint" />
            <mxPoint x="290" y="700" as="targetPoint" />
          </mxGeometry>
        </mxCell>
        <mxCell id="HJFbT3N5DJUNsUuXBN4t-46" value="" style="endArrow=classic;html=1;rounded=0;entryX=1;entryY=0.5;entryDx=0;entryDy=0;exitX=0.5;exitY=1;exitDx=0;exitDy=0;strokeWidth=4;" edge="1" parent="1" target="HJFbT3N5DJUNsUuXBN4t-45">
          <mxGeometry width="50" height="50" relative="1" as="geometry">
            <mxPoint x="575" y="615" as="sourcePoint" />
            <mxPoint x="290" y="700" as="targetPoint" />
          </mxGeometry>
        </mxCell>
        <mxCell id="HJFbT3N5DJUNsUuXBN4t-45" value="&lt;font style=&quot;font-size: 25px;&quot;&gt;錄入車輛&lt;br&gt;離場信息&lt;/font&gt;" style="rounded=1;whiteSpace=wrap;html=1;" vertex="1" parent="1">
          <mxGeometry x="500" y="525" width="170" height="120" as="geometry" />
        </mxCell>
        <mxCell id="HJFbT3N5DJUNsUuXBN4t-47" value="車主" style="text;html=1;align=center;verticalAlign=middle;resizable=0;points=[];autosize=1;strokeColor=none;fillColor=none;fontSize=25;" vertex="1" parent="1">
          <mxGeometry x="195" y="90" width="70" height="40" as="geometry" />
        </mxCell>
        <mxCell id="HJFbT3N5DJUNsUuXBN4t-48" value="管理員" style="text;html=1;align=center;verticalAlign=middle;resizable=0;points=[];autosize=1;strokeColor=none;fillColor=none;fontSize=25;" vertex="1" parent="1">
          <mxGeometry x="510" y="90" width="100" height="40" as="geometry" />
        </mxCell>
        <mxCell id="HJFbT3N5DJUNsUuXBN4t-49" value="(無法辨識車牌)" style="text;html=1;align=center;verticalAlign=middle;resizable=0;points=[];autosize=1;strokeColor=none;fillColor=none;fontSize=18;" vertex="1" parent="1">
          <mxGeometry x="260" y="290" width="140" height="40" as="geometry" />
        </mxCell>
        <mxCell id="HJFbT3N5DJUNsUuXBN4t-50" value="(可辨識車牌)" style="text;html=1;align=center;verticalAlign=middle;resizable=0;points=[];autosize=1;strokeColor=none;fillColor=none;fontSize=18;" vertex="1" parent="1">
          <mxGeometry x="100" y="370" width="130" height="40" as="geometry" />
        </mxCell>
        <mxCell id="HJFbT3N5DJUNsUuXBN4t-51" value="(可辨識車牌)" style="text;html=1;align=center;verticalAlign=middle;resizable=0;points=[];autosize=1;strokeColor=none;fillColor=none;fontSize=18;" vertex="1" parent="1">
          <mxGeometry x="100" y="624.5" width="130" height="40" as="geometry" />
        </mxCell>
        <mxCell id="HJFbT3N5DJUNsUuXBN4t-52" value="(無法辨識車牌)" style="text;html=1;align=center;verticalAlign=middle;resizable=0;points=[];autosize=1;strokeColor=none;fillColor=none;fontSize=18;" vertex="1" parent="1">
          <mxGeometry x="260" y="545" width="140" height="40" as="geometry" />
        </mxCell>
      </root>
    </mxGraphModel>
  </diagram>
</mxfile>
